HIERARCHY
ROOT Junyuan_V1:Solving:Hips
{
	OFFSET 0.000000 0.000000 0.000000
	CHANNELS 6 Xposition Yposition Zposition Xrotation Yrotation Zrotation
	JOINT Junyuan_V1:Solving:Spine
	{
		OFFSET 0.000000 -11.180205 2.228564
		CHANNELS 6 Xposition Yposition Zposition Xrotation Yrotation Zrotation
		JOINT Junyuan_V1:Solving:Spine1
		{
			OFFSET 0.000000 -8.682996 1.531049
			CHANNELS 6 Xposition Yposition Zposition Xrotation Yrotation Zrotation
			JOINT Junyuan_V1:Solving:Spine2
			{
				OFFSET 0.000000 -8.783394 0.768450
				CHANNELS 6 Xposition Yposition Zposition Xrotation Yrotation Zrotation
				JOINT Junyuan_V1:Solving:Spine3
				{
					OFFSET 0.000000 -8.816944 0.000000
					CHANNELS 6 Xposition Yposition Zposition Xrotation Yrotation Zrotation
					JOINT Junyuan_V1:Solving:Neck
					{
						OFFSET 0.000000 -11.336071 -1.133605
						CHANNELS 6 Xposition Yposition Zposition Xrotation Yrotation Zrotation
						JOINT Junyuan_V1:Solving:Neck1
						{
							OFFSET 0.000000 -7.643246 -0.668695
							CHANNELS 6 Xposition Yposition Zposition Xrotation Yrotation Zrotation
							JOINT Junyuan_V1:Solving:Head
							{
								OFFSET 0.000000 -7.555870 -1.332303
								CHANNELS 6 Xposition Yposition Zposition Xrotation Yrotation Zrotation
								JOINT Junyuan_V1:Solving:HeadEnd
								{
									OFFSET 0.000000 -9.728081 0.000002
									CHANNELS 6 Xposition Yposition Zposition Xrotation Yrotation Zrotation
									End Site
									{
										OFFSET 0.000000 -9.728081 0.000002
									}
								}
							}
						}
					}
					JOINT Junyuan_V1:Solving:RightShoulder
					{
						OFFSET 0.000000 -8.097195 -5.270916
						CHANNELS 6 Xposition Yposition Zposition Xrotation Yrotation Zrotation
						JOINT Junyuan_V1:Solving:RightArm
						{
							OFFSET -20.762394 -0.000008 0.000000
							CHANNELS 6 Xposition Yposition Zposition Xrotation Yrotation Zrotation
							JOINT Junyuan_V1:Solving:RightForeArm
							{
								OFFSET -29.048946 -0.000008 0.000000
								CHANNELS 6 Xposition Yposition Zposition Xrotation Yrotation Zrotation
								JOINT Junyuan_V1:Solving:RightHand
								{
									OFFSET -22.031235 -0.000008 0.000000
									CHANNELS 6 Xposition Yposition Zposition Xrotation Yrotation Zrotation
									JOINT Junyuan_V1:Solving:RightHandThumb1
									{
										OFFSET -3.579254 2.890213 -2.661497
										CHANNELS 6 Xposition Yposition Zposition Xrotation Yrotation Zrotation
										End Site
										{
											OFFSET -5.229485 0.000000 -5.277840
										}
									}
									JOINT Junyuan_V1:Solving:RightHandMiddle1
									{
										OFFSET -9.544678 -0.000004 0.061184
										CHANNELS 6 Xposition Yposition Zposition Xrotation Yrotation Zrotation
										End Site
										{
											OFFSET -7.429878 -0.000004 0.000000
										}
									}
								}
							}
						}
					}
					JOINT Junyuan_V1:Solving:LeftShoulder
					{
						OFFSET 0.000000 -8.097195 -5.270916
						CHANNELS 6 Xposition Yposition Zposition Xrotation Yrotation Zrotation
						JOINT Junyuan_V1:Solving:LeftArm
						{
							OFFSET 20.762394 -0.000008 0.000000
							CHANNELS 6 Xposition Yposition Zposition Xrotation Yrotation Zrotation
							JOINT Junyuan_V1:Solving:LeftForeArm
							{
								OFFSET 29.048946 -0.000008 0.000000
								CHANNELS 6 Xposition Yposition Zposition Xrotation Yrotation Zrotation
								JOINT Junyuan_V1:Solving:LeftHand
								{
									OFFSET 22.031235 -0.000008 0.000000
									CHANNELS 6 Xposition Yposition Zposition Xrotation Yrotation Zrotation
									JOINT Junyuan_V1:Solving:LeftHandThumb1
									{
										OFFSET 3.579254 2.890213 -2.661497
										CHANNELS 6 Xposition Yposition Zposition Xrotation Yrotation Zrotation
										End Site
										{
											OFFSET 5.229485 0.000000 -5.277840
										}
									}
									JOINT Junyuan_V1:Solving:LeftHandMiddle1
									{
										OFFSET 9.544678 -0.000004 0.061184
										CHANNELS 6 Xposition Yposition Zposition Xrotation Yrotation Zrotation
										End Site
										{
											OFFSET 7.429878 -0.000004 0.000000
										}
									}
								}
							}
						}
					}
				}
			}
		}
	}
	JOINT Junyuan_V1:Solving:RightUpLeg
	{
		OFFSET -10.825166 0.000000 0.000000
		CHANNELS 6 Xposition Yposition Zposition Xrotation Yrotation Zrotation
		JOINT Junyuan_V1:Solving:RightLeg
		{
			OFFSET 0.000000 43.678444 -0.000006
			CHANNELS 6 Xposition Yposition Zposition Xrotation Yrotation Zrotation
			JOINT Junyuan_V1:Solving:RightFoot
			{
				OFFSET 0.000000 36.488441 -0.000006
				CHANNELS 6 Xposition Yposition Zposition Xrotation Yrotation Zrotation
				JOINT Junyuan_V1:Solving:RightForeFoot
				{
					OFFSET 0.000000 3.967834 -0.000000
					CHANNELS 6 Xposition Yposition Zposition Xrotation Yrotation Zrotation
					JOINT Junyuan_V1:Solving:RightToeBase
					{
						OFFSET 0.000000 0.000000 -15.539299
						CHANNELS 6 Xposition Yposition Zposition Xrotation Yrotation Zrotation
						JOINT Junyuan_V1:Solving:RightToeBaseEnd
						{
							OFFSET 0.000000 0.000000 -3.486985
							CHANNELS 6 Xposition Yposition Zposition Xrotation Yrotation Zrotation
							End Site
							{
								OFFSET 0.000000 -3.486992 0.000000
							}
						}
					}
				}
			}
		}
	}
	JOINT Junyuan_V1:Solving:LeftUpLeg
	{
		OFFSET 10.825166 0.000000 0.000000
		CHANNELS 6 Xposition Yposition Zposition Xrotation Yrotation Zrotation
		JOINT Junyuan_V1:Solving:LeftLeg
		{
			OFFSET 0.000000 43.678444 -0.000006
			CHANNELS 6 Xposition Yposition Zposition Xrotation Yrotation Zrotation
			JOINT Junyuan_V1:Solving:LeftFoot
			{
				OFFSET 0.000000 36.488441 -0.000006
				CHANNELS 6 Xposition Yposition Zposition Xrotation Yrotation Zrotation
				JOINT Junyuan_V1:Solving:LeftForeFoot
				{
					OFFSET 0.000000 3.967834 -0.000000
					CHANNELS 6 Xposition Yposition Zposition Xrotation Yrotation Zrotation
					JOINT Junyuan_V1:Solving:LeftToeBase
					{
						OFFSET 0.000000 0.000000 -15.539299
						CHANNELS 6 Xposition Yposition Zposition Xrotation Yrotation Zrotation
						JOINT Junyuan_V1:Solving:LeftToeBaseEnd
						{
							OFFSET 0.000000 0.000000 -3.974441
							CHANNELS 6 Xposition Yposition Zposition Xrotation Yrotation Zrotation
							End Site
							{
								OFFSET 0.000000 -3.974442 0.000000
							}
						}
					}
				}
			}
		}
	}
}
MOTION
Frames: 4
Frame Time: 0.041667
24.271019 -25.914700 -83.516472 54.707363 -176.518275 -4.398003 0.000005 -11.180230 2.228555 16.125426 0.070852 -0.124037 -0.000001 -8.682993 1.531057 12.480922 0.285669 -0.320066 0.000001 -8.783382 0.768435 14.032352 -2.941219 -3.329532 0.000002 -8.816940 -0.000000 -6.056235 -0.258654 -1.099600 0.000002 -11.336069 -1.133609 -39.104312 -7.699150 3.721281 0.000002 -7.643243 -0.668703 16.195780 1.373417 -0.533944 -0.000003 -7.555887 -1.332282 7.814615 0.055521 0.112609 -0.000003 -9.728088 -0.000005 -0.000007 0.000001 -0.000000 -0.000003 -8.097202 -5.270919 0.000004 7.443696 20.107519 -20.762396 -0.000012 0.000006 -70.046766 -19.549968 -92.837652 -29.048946 -0.000012 0.000006 -37.645861 -16.952979 -12.676214 -22.031233 -0.000017 -0.000009 7.279111 -11.507808 32.629839 -3.579262 2.890215 -2.661500 -0.000003 -0.000000 0.000000 -9.544683 0.000000 0.061171 -0.000003 0.000000 -0.000006 -0.000001 -8.097202 -5.270919 0.000004 -10.443227 -15.547404 20.762390 -0.000006 -0.000004 -81.473324 34.457434 98.421407 29.048944 -0.000028 -0.000004 -63.204692 4.943179 9.682419 22.031240 -0.000024 -0.000007 5.639967 12.390080 -24.714544 3.579265 2.890210 -2.661490 0.000004 -0.000002 -0.000006 9.544680 -0.000011 0.061201 0.000001 0.000001 0.000002 -10.825164 -0.000027 0.000000 -66.838380 13.176047 9.117902 0.000002 43.678448 0.000003 41.272733 0.000001 0.000001 -0.000006 36.488430 -0.000016 -4.769438 12.136684 -2.879200 0.000010 3.967819 -0.000001 -0.000000 -0.000005 0.000002 0.000003 -0.000001 -15.539300 6.952850 0.000001 -0.000000 -0.000009 -0.000008 -3.486989 -0.000000 0.000001 0.000002 10.825172 -0.000021 -0.000002 -67.158853 -30.809754 -14.554476 -0.000004 43.678455 0.000004 37.006627 0.000002 0.000002 -0.000000 36.488441 -0.000009 -5.911335 10.284159 13.240370 0.000008 3.967827 0.000003 -0.000001 0.000003 -0.000000 0.000002 -0.000004 -15.539300 -6.924129 -0.000001 0.000001 0.000002 0.000000 -3.974432 0.000001 -0.000005 -0.000000 
24.418571 -25.950142 -83.401237 54.716652 -176.252144 -4.138144 -0.000005 -11.180221 2.228580 16.072591 0.075837 -0.136599 0.000003 -8.683007 1.531044 12.466729 0.280600 -0.351636 0.000003 -8.783380 0.768462 14.141665 -3.011482 -3.254389 0.000003 -8.816939 -0.000012 -6.099309 -0.265754 -1.059081 0.000002 -11.336060 -1.133604 -39.072381 -7.801360 3.698712 -0.000004 -7.643243 -0.668698 16.368593 1.337585 -0.516454 0.000004 -7.555871 -1.332297 7.829130 0.051668 0.111386 0.000001 -9.728073 -0.000006 -0.000007 -0.000000 0.000000 0.000003 -8.097202 -5.270928 0.000009 7.355834 20.072978 -20.762384 -0.000010 0.000017 -69.988969 -19.540184 -92.675053 -29.048946 -0.000030 -0.000006 -37.775164 -16.806638 -12.630252 -22.031218 -0.000011 -0.000020 7.362695 -11.558301 32.818045 -3.579245 2.890203 -2.661484 0.000002 -0.000002 0.000003 -9.544681 -0.000009 0.061197 0.000000 -0.000002 -0.000004 0.000006 -8.097198 -5.270927 0.000003 -10.443355 -15.508071 20.762405 -0.000002 0.000004 -81.362969 34.712572 98.086004 29.048948 -0.000016 0.000005 -63.458468 4.812147 9.533862 22.031221 -0.000018 -0.000005 5.723379 12.478763 -24.883795 3.579293 2.890210 -2.661470 0.000007 0.000000 0.000001 9.544702 0.000001 0.061186 0.000002 -0.000006 0.000002 -10.825168 -0.000021 0.000017 -66.994348 14.154820 9.084742 0.000001 43.678455 0.000014 41.639934 0.000003 0.000001 0.000000 36.488426 -0.000007 -5.019386 11.257629 -2.930757 0.000002 3.967827 -0.000001 -0.000000 0.000002 -0.000000 -0.000009 -0.000004 -15.539299 6.864201 0.000005 -0.000001 -0.000008 -0.000007 -3.486981 0.000001 0.000005 0.000000 10.825163 -0.000010 0.000010 -66.818231 -30.359890 -14.152262 0.000004 43.678436 -0.000005 36.148831 0.000005 0.000000 -0.000001 36.488407 -0.000002 -5.145073 11.616297 11.639219 0.000004 3.967827 -0.000000 -0.000001 0.000001 0.000000 -0.000002 0.000000 -15.539305 -5.616853 -0.000005 0.000004 -0.000003 -0.000007 -3.974438 0.000000 -0.000003 0.000002 
24.564568 -25.992107 -83.299988 54.779671 -175.964743 -3.851578 0.000001 -11.180185 2.228566 16.063140 0.173276 -0.076672 -0.000004 -8.683016 1.531060 12.430161 0.257082 -0.370785 -0.000002 -8.783389 0.768467 14.356337 -3.153237 -3.236106 -0.000002 -8.816945 0.000001 -6.176354 -0.304965 -1.079416 0.000003 -11.336098 -1.133599 -39.094903 -7.916383 3.772254 -0.000001 -7.643259 -0.668690 16.536713 1.314781 -0.552140 -0.000002 -7.555871 -1.332317 7.875862 0.050775 0.100437 0.000000 -9.728058 -0.000009 -0.000005 -0.000001 -0.000000 0.000002 -8.097202 -5.270915 0.000009 7.286402 20.045157 -20.762392 -0.000018 -0.000024 -70.021788 -19.673400 -92.522945 -29.048941 -0.000004 0.000006 -37.940547 -16.619539 -12.570257 -22.031240 -0.000005 -0.000030 7.443078 -11.590764 33.032762 -3.579264 2.890217 -2.661478 0.000005 -0.000000 0.000007 -9.544694 -0.000005 0.061209 -0.000002 -0.000001 -0.000001 0.000003 -8.097210 -5.270908 0.000008 -10.375477 -15.443819 20.762383 -0.000006 0.000004 -81.183123 34.785884 97.705733 29.048933 -0.000026 -0.000008 -63.632173 4.707710 9.401017 22.031258 -0.000012 0.000009 5.728519 12.410077 -25.022651 3.579248 2.890206 -2.661494 0.000005 0.000002 -0.000008 9.544681 -0.000007 0.061196 0.000002 -0.000001 -0.000006 -10.825165 0.000002 0.000004 -67.114552 15.250269 9.081995 -0.000006 43.678452 -0.000003 42.042601 0.000005 -0.000000 -0.000006 36.488438 -0.000013 -5.206891 10.322476 -3.057855 -0.000007 3.967827 -0.000002 0.000000 -0.000000 0.000000 -0.000001 0.000006 -15.539301 6.792220 -0.000000 0.000000 0.000007 -0.000016 -3.486974 0.000001 -0.000003 0.000004 10.825167 0.000021 -0.000006 -66.441505 -29.610120 -13.779714 0.000003 43.678455 -0.000000 35.426859 0.000003 -0.000000 -0.000002 36.488407 0.000001 -4.734954 12.497523 8.200090 -0.000002 3.967826 0.000010 0.000000 -0.000002 -0.000001 -0.000000 0.000003 -15.539288 -2.621560 0.000001 -0.000003 0.000001 -0.000023 -3.974444 0.000000 -0.000003 -0.000000 
24.670031 -26.017921 -83.215332 54.778834 -175.694923 -3.675357 -0.000001 -11.180225 2.228561 16.041403 0.316994 0.022797 -0.000002 -8.682993 1.531053 12.414749 0.228283 -0.411103 0.000004 -8.783378 0.768448 14.543925 -3.205790 -3.116841 0.000004 -8.816926 -0.000011 -6.312460 -0.307710 -1.110366 -0.000000 -11.336078 -1.133605 -39.154169 -8.002627 3.778812 -0.000003 -7.643229 -0.668683 16.736696 1.249960 -0.582446 0.000001 -7.555872 -1.332304 7.903779 0.047941 0.086715 0.000002 -9.728088 0.000023 0.000001 0.000000 -0.000000 0.000002 -8.097202 -5.270905 0.000009 7.179781 19.967870 -20.762398 -0.000015 -0.000014 -70.049566 -19.787104 -92.414638 -29.048925 -0.000012 0.000015 -38.099809 -16.457633 -12.524228 -22.031229 -0.000013 -0.000012 7.453360 -11.601510 33.045388 -3.579256 2.890221 -2.661464 0.000005 -0.000002 0.000008 -9.544677 -0.000003 0.061213 0.000003 0.000002 0.000002 0.000002 -8.097206 -5.270907 -0.000000 -10.376352 -15.413423 20.762392 -0.000006 0.000016 -81.000040 35.056653 97.334034 29.048971 -0.000025 0.000011 -63.721246 4.602523 9.230468 22.031237 -0.000023 -0.000016 5.738144 12.313869 -25.228619 3.579261 2.890214 -2.661506 0.000005 0.000000 -0.000001 9.544686 -0.000008 0.061190 0.000002 0.000002 0.000001 -10.825169 -0.000012 -0.000012 -67.395191 16.434786 9.268962 -0.000001 43.678444 0.000002 42.453983 -0.000001 0.000003 0.000002 36.488434 -0.000005 -5.290939 9.231692 -3.259516 0.000003 3.967827 -0.000004 0.000000 0.000003 -0.000000 -0.000003 0.000008 -15.539292 6.523880 0.000003 -0.000000 0.000005 -0.000001 -3.487016 -0.000000 -0.000000 0.000003 10.825163 -0.000027 -0.000003 -66.107468 -28.515116 -13.351772 -0.000001 43.678452 0.000002 35.327272 0.000000 0.000003 -0.000002 36.488434 -0.000008 -4.140406 10.310500 4.689632 -0.000001 3.967827 -0.000008 0.000000 0.000003 -0.000001 -0.000003 -0.000018 -15.539309 -0.954670 0.000003 -0.000003 0.000003 -0.000015 -3.974451 0.000000 -0.000002 -0.000001 
